<svg width="70" height="67" viewBox="0 0 70 67" fill="none" xmlns="http://www.w3.org/2000/svg">
<mask id="mask0_668_250861" style="mask-type:luminance" maskUnits="userSpaceOnUse" x="0" y="9" width="70" height="58">
<path d="M0 9.58789H70V66.9212H0V9.58789Z" fill="white"/>
</mask>
<g mask="url(#mask0_668_250861)">
<path d="M18.0157 24.6034C17.0104 23.2075 16.1042 21.9627 15.2084 20.7284C14.2136 19.3586 13.2761 17.9784 12.5625 16.4263C12.1511 15.5252 12.1979 14.7961 12.8646 14.0148C14.0209 12.6815 15.0521 11.2336 16.7032 10.4523C16.9063 10.3586 17.0782 10.1919 17.3177 10.1659C19.8386 9.98877 22.3646 9.79606 24.8646 10.395C25.4688 10.5409 25.8854 10.8377 26.2396 11.3325C26.8594 12.2075 27.5261 13.0461 28.1719 13.9054C28.375 14.1763 28.6146 14.4471 28.7604 14.7544C29.2032 15.6711 29.2813 16.5409 28.5573 17.4159C27.3802 18.8273 26.0886 20.1554 24.8646 21.5252C24.0521 22.4263 23.2604 23.3586 22.5677 24.3065C22.75 24.7284 23.0573 24.6242 23.3073 24.6502C26.8594 24.9992 30.2344 25.9367 33.3021 27.8169C33.8334 28.145 34.1302 28.0461 34.5938 27.6919C37.1823 25.6763 40.0834 24.4315 43.375 24.0148C46.875 23.5721 50.3282 23.6398 53.7813 24.4106C60.2552 25.869 64.8438 29.7856 68.2032 35.3325C68.3646 35.5929 68.5209 35.8794 68.5886 36.1606C69.349 39.3742 70.0834 42.5929 69.9844 45.9211C69.9479 47.0513 69.6198 48.1034 69.2709 49.1711C68.0938 52.6919 66.2709 55.8846 64.2188 58.9523C63.9115 59.4054 63.5157 59.7544 63.099 60.0929C58.4323 63.8742 53.1146 65.744 47.1042 65.369C43.2657 65.1346 39.6198 64.0929 36.3021 62.0981C35.6198 61.6919 35.1719 61.6554 34.4896 62.1346C29.974 65.2544 24.9584 66.6242 19.4688 66.1034C15.9479 65.7752 12.6302 64.77 9.53649 63.0356C6.21878 61.1815 4.06774 58.3065 2.36982 54.9992C1.14065 52.5981 0.604194 50.0304 0.390653 47.369C0.0416939 43.0877 0.468778 38.9106 2.38544 35.0304C4.45315 30.8169 7.62503 27.7023 12.0521 25.9627C13.4792 25.395 14.9063 24.8377 16.4792 24.8377C16.9323 24.8377 17.375 24.6919 18.0157 24.5669V24.6034ZM39.1407 56.9784C39.3907 57.2648 39.6979 57.3429 39.9792 57.4679C41.8959 58.2961 43.8959 58.7909 45.9375 59.1867C51.0052 60.1711 55.3229 58.5981 59.0886 55.2596C59.7813 54.6502 60.4584 54.0044 60.9688 53.244C63.2344 49.895 64.3125 46.2492 63.8438 42.1398C63.3802 38.0513 61.4792 35.0044 57.9375 32.9471C56.0365 31.8377 54.0313 31.0565 51.8907 30.5096C47.8854 29.494 44.0677 29.7648 40.3646 31.5981C39.8334 31.869 39.224 32.02 38.724 32.494C39.0417 32.9106 39.3334 33.3221 39.6407 33.7023C40.9427 35.3481 41.9948 37.1138 42.1771 39.2752C42.2136 39.6919 42.3594 40.1034 42.4479 40.5096C43.375 44.4575 43.4011 48.3325 41.5782 52.0773C41.1719 52.9054 40.8177 53.7544 40.4115 54.5825C40.0157 55.395 39.5729 56.2023 39.1667 57.0044L39.1407 56.9784ZM41.5782 44.0304C41.5677 42.1398 41.5209 40.3377 40.7396 38.7179C37.8282 32.7648 33.3594 28.619 26.7917 26.9784C22.2761 25.8481 17.7552 25.9627 13.2292 26.9367C12.6042 27.0721 12.0834 27.3898 11.5782 27.7179C8.92711 29.4679 6.68753 31.5981 4.73961 34.145C2.12503 37.5669 1.23961 41.494 1.35419 45.6034C1.45315 49.1815 2.34899 52.645 4.26044 55.7804C5.89065 58.4627 7.94274 60.6711 10.8073 62.0513C11.6302 62.4471 12.4688 62.8325 13.2969 63.2544C16.0365 64.6242 18.9688 65.1346 21.9896 65.119C27.5157 65.0981 31.9427 62.4159 36.099 59.1294C36.224 59.0409 36.3334 58.9263 36.4167 58.8013C37.7865 56.7752 39.2657 54.7961 40.1615 52.4992C41.224 49.7336 41.3959 46.8169 41.5886 44.0304H41.5782ZM36.7188 60.5721C36.8021 60.6711 36.8229 60.7648 36.8802 60.7856C37.3542 61.0461 37.8282 61.2961 38.2917 61.5409C41.4167 63.1867 44.6927 64.3273 48.2657 64.2961C51.1302 64.27 53.9532 63.9315 56.5 62.5409C58.2396 61.5877 59.9271 60.5148 61.625 59.4627C62.6823 58.8013 63.5313 57.9211 64.1719 56.8429C64.7084 55.9627 65.2136 55.0461 65.8021 54.2075C66.5729 53.119 67.0938 51.9315 67.4323 50.6763C68.2709 47.5825 68.6354 44.4263 68.4219 41.2231C68.3386 40.1138 68.1927 38.994 67.7084 37.9836C64.8646 32.1971 60.5834 28.0565 54.2448 26.3117C50.1042 25.1815 45.9375 25.2023 41.7032 25.7909C39.1198 26.1554 37.375 27.7023 35.4323 29.2336C35.9948 29.7648 36.4844 30.2075 36.9375 30.6502C37.75 31.4419 37.5938 31.2909 38.4844 30.8742C40.8177 29.7856 43.1979 28.8013 45.8021 28.5877C50.4063 28.1919 54.7188 29.1398 58.6927 31.52C62.2032 33.6242 64.4792 36.5929 65.125 40.7127C65.8594 45.4315 64.9896 49.7804 62.1823 53.7075C61.3907 54.8169 60.3802 55.7023 59.4427 56.6398C56.0886 59.9575 51.9792 61.2127 47.375 60.9315C44.4063 60.7492 41.5677 59.9263 38.8386 58.7596C38.3177 58.5304 38.0104 58.5565 37.7292 59.0773C37.4584 59.5721 37.0938 60.0252 36.7292 60.5565L36.7188 60.5721ZM27.7657 15.5669C26.4844 14.2231 25.5469 12.9731 25.0365 11.4575C24.9011 11.0513 24.5834 11.119 24.2761 11.1554C22.6719 11.369 21.0625 11.2909 19.4532 11.2752C18.6979 11.2752 17.8021 10.9627 17.2032 11.244C16.5573 11.5617 16.1719 12.4211 15.6615 13.0461C15.1771 13.6554 14.6771 14.2544 14.0313 15.0356C14.9948 15.0356 15.7188 14.9888 16.4323 15.0461C17.099 15.1034 17.4948 14.8898 17.724 14.2336C17.9948 13.4731 18.3125 12.7284 18.7761 12.0721C18.8907 11.9106 19.0469 11.7648 19.25 11.8429C19.4792 11.9315 19.4427 12.1606 19.375 12.3325C19.125 13.0096 18.8542 13.6867 18.5938 14.369C18.3229 15.0565 18.3334 15.1242 19.0157 15.1711C20 15.2388 20.9948 15.2961 22.0052 15.1711C21.9479 14.3794 21.6042 13.645 21.7657 12.8742C21.8229 12.6138 21.8646 12.3169 22.2084 12.2752C22.5469 12.2284 22.6719 12.5096 22.7604 12.7596C22.974 13.3742 23.1563 14.0044 23.3386 14.6294C23.4532 15.0356 23.6459 15.2752 24.1302 15.2961C25.2396 15.3429 26.3386 15.4575 27.7552 15.5669H27.7657ZM22.9896 16.6086C21.2448 16.5304 19.6927 16.4627 18.1979 16.3846C18.1302 16.5096 18.099 16.5409 18.099 16.5773C18.3594 19.1242 18.9584 21.6138 19.4792 24.1138C19.5677 24.5565 20.1563 24.6502 20.4532 24.2752C20.5886 24.0929 20.6563 23.869 20.724 23.6502C21.0417 22.6659 21.3802 21.6919 21.6407 20.6971C21.9896 19.3742 22.4688 18.0929 22.974 16.6086H22.9896ZM22.1615 22.52C23.9063 21.2492 27.6198 17.4367 28.1615 16.3742C26.9167 16.4263 25.6927 16.494 24.4844 16.5513C24.1094 16.5669 23.9375 16.77 23.8386 17.0877C23.3073 18.8273 22.7604 20.5721 22.1615 22.52ZM17.8698 22.2023C17.5625 20.369 17.2344 18.5669 17.0886 16.744C17.0677 16.4627 17 16.2023 16.6459 16.1919C15.5938 16.1659 14.5521 15.8638 13.3438 15.9523C14.6563 18.2752 16.2657 20.2336 17.8698 22.2023Z" fill="#600C38"/>
</g>
<mask id="mask1_668_250861" style="mask-type:luminance" maskUnits="userSpaceOnUse" x="20" y="0" width="4" height="9">
<path d="M20.526 0H23.1927V8.25521H20.526V0Z" fill="white"/>
</mask>
<g mask="url(#mask1_668_250861)">
<path d="M21.1405 7.8389C20.7551 6.89619 20.7708 5.96911 20.7551 5.05244C20.7551 3.70348 20.7916 2.37015 20.9478 1.03161C20.9739 0.807649 20.9947 0.568066 21.0833 0.364941C21.2551 0.0159824 21.677 0.000358042 21.9374 0.297233C22.1822 0.578483 22.1718 0.943066 22.1822 1.28161C22.2187 3.44307 21.9478 5.56286 21.3801 7.64619C21.3697 7.70348 21.276 7.72432 21.1301 7.8389H21.1405Z" fill="#600C38"/>
</g>
<path d="M38.3386 15.9062C38.1928 16.5104 37.8646 16.7708 37.5261 16.9844C36.3907 17.7083 35.125 17.9115 33.8125 17.8542C33.4375 17.8437 33.0209 17.7656 32.948 17.276C32.8959 16.8125 33.2084 16.599 33.573 16.4271C33.9896 16.2344 34.4428 16.1823 34.8959 16.1146C35.9844 15.9323 37.0834 15.9323 38.3386 15.9062Z" fill="#600C38"/>
<path d="M26.5312 7.96316C26.552 7.07774 26.8958 6.53608 27.2448 5.99962C27.7083 5.3017 28.276 4.66628 28.9218 4.12462C29.1562 3.93191 29.3958 3.7392 29.7031 3.67149C29.9479 3.6142 30.177 3.64545 30.3333 3.82774C30.5052 4.01003 30.4843 4.26003 30.3698 4.47357C30.3229 4.57774 30.2552 4.66628 30.177 4.75482C29.2031 5.99962 28.0937 7.08816 26.5104 7.96316H26.5312Z" fill="#600C38"/>
<path d="M8.26046 25.1562C8.0313 25.1354 7.70317 25.2239 7.60421 24.8854C7.52088 24.6354 7.75005 24.4583 7.92192 24.3177C8.9063 23.5416 9.89067 22.7447 10.9063 21.9895C11.1823 21.7864 11.5521 21.6458 11.849 21.9791C12.1094 22.2708 11.9063 22.5677 11.7032 22.7916C11.0782 23.5156 10.4219 24.2187 9.5938 24.7291C9.19797 24.9635 8.77088 25.1354 8.27088 25.1458L8.26046 25.1562Z" fill="#600C38"/>
<path d="M13.1927 9.24982C12.6041 9.12482 12.3906 8.76545 12.2083 8.40086C11.6458 7.28107 11.5104 6.05711 11.4427 4.83836C11.427 4.61961 11.4947 4.36961 11.5989 4.18211C11.7708 3.83836 12.2239 3.82795 12.4479 4.13524C12.5156 4.22378 12.5625 4.33836 12.5833 4.45295C12.8645 6.01544 13.2083 7.57795 13.1823 9.26545L13.1927 9.24982Z" fill="#600C38"/>
<path d="M9.93236 16.5514C8.85944 17.4368 7.66153 17.9212 6.29174 17.9472C5.93757 17.9472 5.60945 17.8222 5.35945 17.5618C4.98965 17.1764 5.07819 16.4732 5.54174 16.4524C7.00007 16.3587 8.47403 16.192 9.93236 16.5514Z" fill="#600C38"/>
<path d="M8.73436 12.7391C7.46874 12.3329 6.3229 11.6975 5.32811 10.7912C4.99999 10.4943 4.80728 10.0777 5.16665 9.67142C5.49478 9.30683 5.86978 9.49954 6.18749 9.73913C7.0677 10.4162 7.93228 11.1193 8.56249 12.0464C8.67707 12.2183 8.90624 12.3745 8.72395 12.7287L8.73436 12.7391Z" fill="#600C38"/>
<path d="M32.6458 24.2079C31.5468 24.0568 30.7187 23.5725 30.1093 22.7443C29.9479 22.5308 29.8802 22.2704 29.9166 21.9995C29.9635 21.5464 30.3697 21.2652 30.7187 21.5256C31.6041 22.1662 32.5104 22.8381 33.1093 23.7652C33.4166 24.2391 32.8281 24.0933 32.6562 24.2079H32.6458Z" fill="#600C38"/>
<path d="M35.1459 8.79688C34.5469 10.099 33.5625 11.0313 32.4323 11.8229C32.2032 11.9792 31.9532 12.1146 31.7188 11.8646C31.5 11.6406 31.5678 11.3594 31.7188 11.1302C31.8282 10.9375 31.9896 10.7552 32.1459 10.599C33.0209 9.80729 33.9688 9.14062 35.1563 8.79688H35.1459Z" fill="#600C38"/>
<path d="M38.4323 44.6667C38.5521 48.6147 37.1979 52.0886 34.7708 55.0886C31.9896 58.5574 28.5469 61.0574 23.9375 61.6355C20.6667 62.0417 17.5312 61.5001 14.4271 60.5365C13.8854 60.3647 13.3542 60.1199 12.8125 59.948C9.57291 58.9063 7.41145 56.6772 6.01562 53.6667C5.09895 51.6824 4.16145 49.7136 3.8802 47.5053C3.7552 46.5105 3.65103 45.5157 3.82291 44.5261C4.12499 42.7188 4.40103 40.8594 5.17708 39.198C6.6302 36.1147 8.36978 33.2292 11.6094 31.6667C13.2604 30.8647 14.9844 30.1824 16.7708 29.7657C21.2917 28.7136 25.6042 29.4584 29.7708 31.2917C31.1719 31.9063 32.5 32.698 33.6875 33.6824C36.0312 35.6407 37.5833 38.0886 38.1042 41.1303C38.3073 42.3074 38.349 43.5001 38.4167 44.6772L38.4323 44.6667ZM21.4687 60.2449C25.0573 60.2449 27.8333 59.3803 30.2448 57.4792C30.8802 56.9792 30.9115 56.9688 30.4844 56.3126C28.5573 53.349 27.5729 50.099 27.3229 46.5886C27.0052 42.1876 27.5052 37.9376 29.4635 33.9324C29.849 33.1407 29.849 33.1042 29.0781 32.7344C26.4531 31.4532 23.6458 30.8542 20.7708 30.7032C17.1927 30.5261 14.0208 31.8959 11.0208 33.6719C10.4531 34.0001 9.93228 34.4167 9.58333 34.974C8.01041 37.474 6.51562 40.0209 5.71353 42.8959C5.26041 44.5053 5.13541 46.1459 5.54166 47.7865C6.19791 50.4584 7.32812 52.9167 8.91666 55.1615C9.70833 56.2813 10.7292 57.1615 11.9479 57.7501C15.1198 59.3022 18.4948 60.1303 21.4844 60.2449H21.4687ZM31.9323 56.1876C32.5104 55.6355 32.9271 55.1824 33.3802 54.7865C33.7083 54.5001 33.6875 54.2553 33.4844 53.8907C32.7135 52.5209 32.0885 51.073 31.5573 49.5886C30.8542 47.6667 30.4375 45.6719 30.776 43.6094C31.026 42.1407 31.3177 40.6772 31.8073 39.2553C32.0677 38.4949 32.3073 37.724 32.7135 37.0209C33.3073 36.0105 33.125 35.1667 32.1562 34.4844C32.0312 34.3959 31.9115 34.3074 31.7865 34.224C31.4896 34.0105 31.2292 34.0105 31.0156 34.349C30.8542 34.6094 30.6771 34.8594 30.5156 35.1303C28.6042 38.3907 28.1719 41.9688 28.3437 45.6615C28.401 46.9636 28.7604 48.2292 29 49.5105C29.4271 51.9428 30.6771 54.0053 31.9323 56.1772V56.1876ZM34.7865 52.5105C37.7292 48.6615 37.6615 39.4688 34.7187 37.3647C31.4583 42.4011 31.4792 47.4376 34.7865 52.5105Z" fill="#600C38"/>
</svg>
